**ABCDEFGHIJKLMNOPQRSTUVWXYZabcdefghijklmnopqrstuvwxyz**************************
**PARASOLID !"#$%&'()*+,-./:;<=>?@[\]^_`{|}~0123456789**************************
**PART1;
MC=unknown;
MC_MODEL=unknown;
MC_ID=unknown;
OS=unknown;
OS_RELEASE=unknown;
FRU=sdl_parasolid_customer_support;
APPL=parasolid_acceptance_tests;
SITE=unknown;
USER=unknown;
FORMAT=text;
GUISE=transmit;
KEY=/users/mohara/Desktop/CUBEnew/cubeTet_nat.x_t;
FILE=/users/mohara/Desktop/CUBEnew/cubeTet_nat.x_t;
DATE=unknown;
**PART2;
SCH=SCH_2900122_28101;
USFLD_SIZE=1;
**PART3;
**END_OF_HEADER*****************************************************************
T51 : TRANSMIT FILE created by modeller version 290012223 SCH_2900122_28101_1300
6203 1 12 33 CCCCCCI4 mesh1006 0 I8 polyline1008 0 CCCCCCCDI5 owner1040 0 CCCCCC
I13 boundary_mesh1006 0 I17 boundary_polyline1008 0 CCCA16 index_map_offset0 0 1
 dA9 index_map82 0 A17 node_id_index_map82 0 A20 schema_embedding_map82 0 A5 chi
ld12 0 A14 lowest_node_id0 0 1 dZ1 136 2 3 0 0 0 0 0 0 1e3 1e-8 0 0 0 1 0 1 1 4
 5 6 7 0 0 8 9 10 0 0 0 0 0 0 0 81 255 1 2 136 11 1 12 0 0 0 13 0 70 11 CI9 list
_type0 0 1 uI10 notransmit0 0 1 lCCCDCCDI12 finger_index0 0 1 dI12 finger_block1
012 0 CZ3 0 4 T1 0 0 4 20 1 14 14 0 13 255 4 91 0 1 0 15 0 0 16 0 0 50 255 5 86
 0 15 17 0 0 +0 1 1 1 0 0 0 0 -1 0 30 255 6 90 0 18 19 0 0 +0 1 1 0 0 -1 0 29 25
5 7 67 0 20 21 0 1 1 0 0 19 8 CCCCCCCA5 owner12 0 Z8 1 0 1 16 0 22 V0 0 16 255 9
 73 23 ?24 0 25 19 0 0 1 0 18 255 10 15 0 26 0 27 28 ?1 0 17 255 26 0 29 30 31 1
0 32 33 0 34 +0 18 27 10 0 31 10 35 36 ?1 0 29 28 17 0 10 36 37 1 1 1 0 29 36 12
 0 27 38 28 1 0 1 0 29 37 70 0 39 28 40 0 1 0 0 18 39 60 0 41 42 0 37 ?1 0 29 40
 69 0 42 37 21 0 0 0 0 18 42 58 0 43 44 39 40 ?1 0 29 21 68 0 44 40 7 1 0 0 0 18
 44 56 0 45 20 42 21 ?1 0 17 45 0 46 47 24 44 43 48 0 49 +0 18 20 54 0 50 51 44
 7 ?1 0 17 50 0 52 34 49 20 53 54 0 55 +0 18 51 2 0 30 35 20 56 ?1 0 17 30 0 29
 57 26 51 58 59 0 60 +0 18 35 5 0 61 27 51 38 ?1 0 29 56 4 0 51 0 38 0 1 1 0 29
 38 7 0 35 56 36 0 0 1 0 17 61 0 46 24 47 35 31 62 0 57 -0 15 255 46 79 0 45 63
 0 0 17 24 0 46 45 61 42 64 9 0 65 +0 17 47 0 46 61 45 27 49 25 0 32 -0 17 31 0
 29 26 57 27 61 62 0 47 +0 16 62 11 66 ?31 33 67 68 0 0 1 0 17 57 0 29 31 30 35
 69 67 0 64 +0 15 29 23 0 57 70 0 0 17 69 0 71 72 64 51 57 67 0 0 -0 16 67 6 73
 ?57 62 74 75 0 0 1 0 17 64 0 71 69 65 35 24 9 0 0 -0 15 71 81 0 65 15 0 0 17 65
 0 71 64 72 42 76 77 0 0 +0 17 72 0 71 65 69 39 60 18 0 76 +0 17 76 0 78 79 43 3
9 65 77 0 0 -0 16 77 52 80 ?65 48 0 81 0 0 1 0 81 1 80 117 82 77 0 0 83 84 85 0
 16 48 50 86 ?45 54 77 87 0 0 1 0 30 81 66 0 77 88 87 0 +0 1 0 0 -1 0 0 30 88 22
 0 59 89 81 0 +1 1 1 -1 0 0 0 30 87 65 0 48 81 90 0 +0 0 0 1 0 0 0 30 90 64 0 54
 87 91 0 +1 0 0 -1110223024625156e-31 1 0 0 16 54 48 92 ?50 74 48 90 0 0 1 0 30
 91 63 0 74 90 93 0 +1 1 0 -1 0 0 0 16 74 46 94 ?41 67 54 91 0 0 1 0 30 93 87 0
 95 91 96 0 +1 1 1 0 0 -1 0 16 95 71 83 ?55 25 18 93 0 0 1 0 30 96 88 0 25 93 19
 0 +1 0 1 0 0 -1 0 16 25 72 97 ?49 9 95 96 0 0 1 0 30 19 89 0 9 96 6 0 +0 0 1 0
 0 -1 0 81 1 97 120 82 25 0 0 66 92 98 0 17 49 0 52 50 32 44 47 25 0 53 +0 15 52
 77 0 50 99 0 0 17 32 0 52 49 34 27 26 33 0 0 -0 17 53 0 78 43 79 44 50 54 0 0 -
0 15 78 45 0 76 100 0 0 17 43 0 78 76 53 42 45 48 0 24 -0 17 79 0 78 53 76 20 41
 74 0 0 -0 17 41 0 101 60 55 39 79 74 0 72 +0 15 101 75 0 41 102 0 0 17 60 0 101
 58 41 51 72 18 0 69 -0 17 55 0 101 41 58 20 34 95 0 79 +0 17 58 0 101 55 60 10
 30 59 0 0 -0 17 34 0 52 32 50 10 55 95 0 58 -0 16 59 20 84 ?30 18 33 88 0 0 1 0
 81 1 84 118 82 59 0 0 80 66 103 0 16 18 74 104 ?72 95 59 6 0 0 1 0 16 33 16 105
 ?26 59 62 89 0 0 1 0 81 1 105 113 82 33 0 0 94 23 106 0 30 89 19 0 33 68 88 0 +
1 0 1 -1110223024625156e-31 1 0 0 30 68 14 0 62 75 89 0 +0 0 1 1 0 0 0 30 75 9 0
 67 0 68 0 +0 1 1 0 -1 0 0 80 255 1 82 107 108 9000 1 1 1 1 1 1 1 1 0 FFFFTFTFFF
FFFF3 0 81 1 94 112 82 74 0 0 0 105 109 0 81 1 23 114 82 9 0 0 105 73 110 0 84 2
55 32 106 a9646af57b8b94b927676557611c65710 81 1 73 115 82 67 0 0 23 83 111 0 84
 32 110 66a34cd12a13ae159f4ff9f4c9b89a090 81 1 83 116 82 95 0 0 73 80 112 0 84 3
2 111 dc706105ae1aa467f0a666f66c4b95dd0 84 32 112 69c6ad4e357f547bfa3afa540ddda8
0f0 84 32 109 e0515247a4debb0be01428108b3e6ff30 79 255 15 108 UGS/ObjectState0 8
1 1 104 123 82 18 0 0 86 113 114 0 81 1 86 122 82 48 0 0 92 104 115 0 81 1 113 1
24 82 70 0 116 104 117 118 0 84 32 114 c0ae13a7407ffd26dd26f797528f65510 14 255
 70 24 116 ?100 102 29 4 119 +0 0 100 102 22 0 81 1 116 134 120 70 113 0 121 122
 123 0 81 1 117 125 82 99 0 124 113 125 126 0 84 32 118 991f8b20af0e993d7df6dd2d
752623570 14 99 78 124 ?102 63 52 4 127 -0 0 102 63 22 0 81 1 124 132 120 99 117
 0 128 121 129 0 81 1 125 126 82 15 0 130 117 131 132 0 84 32 126 d16c75c6ce1031
796296017fcf77abe00 14 15 82 130 ?63 0 71 4 5 -0 0 63 0 22 0 81 1 130 130 120 15
 125 0 0 128 133 0 81 1 131 127 82 100 0 122 125 134 135 0 84 32 132 86cb84a553c
bdf4d7e2a8b8b0e4fe3640 14 100 42 122 ?0 70 78 4 136 -0 0 0 70 22 0 81 1 122 135
 120 100 131 0 116 0 137 0 81 1 134 128 82 63 0 128 131 138 139 0 84 32 135 55ca
5d16409a8368a7761c9431d3db2e0 14 63 80 128 ?99 15 46 4 17 -0 0 99 15 22 0 81 1 1
28 131 120 63 134 0 130 124 140 0 81 1 138 129 82 102 0 121 134 0 141 0 84 32 13
9 48f81057f53743abb74cd7b3d4939f290 14 102 76 121 ?70 99 101 4 142 -0 0 70 99 22
 0 81 1 121 133 120 102 138 0 124 116 143 0 84 32 141 fd529ed2b376a21bb91a805f87
7a9fb00 80 1 120 0 144 8001 0 0 0 0 3 5 0 0 0 FFFFTFTFFFFFFF2 0 83 255 3 143 .59
6063172350652 .666666666666667 .686259250782025 0 79 15 144 SDL/TYSA_COLOUR0 50
 142 83 0 102 136 127 0 +1 1 1 0 -1 0 0 0 -1 0 13 22 3 0 0 0 0 0 0 8 15 0 50 136
 62 0 100 119 142 0 +0 0 0 0 0 1 1 0 0 0 50 127 84 0 99 142 17 0 +1 0 1 -1 -1110
223024625156e-31 0 1110223024625156e-31 -1 0 0 50 17 85 0 63 127 5 0 +0 0 1 0 1
 0 0 0 1 0 50 119 25 0 70 0 136 0 +0 0 1 0 0 1 1 0 0 0 83 3 140 .596063172350652
 .666666666666667 .686259250782025 0 83 3 137 .596063172350652 .666666666666667
 .686259250782025 0 83 3 133 .596063172350652 .666666666666667 .686259250782025
 0 83 3 129 .596063172350652 .666666666666667 .686259250782025 0 83 3 123 .59606
3172350652 .666666666666667 .686259250782025 0 81 1 92 121 82 54 0 0 97 86 145 0
 84 32 115 8e056702707908ebdcc11fc8cb7b37490 84 32 145 7ae8def2382bc2db693ad629c
12a2fae0 81 1 66 119 82 62 0 0 84 97 146 0 84 32 103 27328b92cf7fa8873f732c463b0
ee04d0 84 32 146 8b82e555eb385cf3544e8ccc17d88def0 84 32 98 adfd6e22ca4b1510166e
7654387460070 84 32 85 fae42cfe7d01c4d08c1673b0244097e30 19 16 92 0 1 0 8 4 S0 0
 74 4 CI16 index_map_offset0 0 1 dCCZ20 14 4 0 0 12 138 122 2 0 0 0 0 0 0 0 0 0
 0 0 0 0 0 0 0 0 81 2 12 111 147 1 0 2 0 0 148 149 0 80 2 147 150 151 8004 0 0 0
 0 3 5 0 0 0 FFTFFFFFFFFFFF2 3 0 83 1 148 7830.64 0 84 8 149 Kg/Cu M 0 79 16 151
 SDL/TYSA_DENSITY0 80 1 11 82 152 9000 0 0 0 0 3 5 0 0 0 FFTFFFFFFFFFFF1 0 82 25
5 1 13 129 0 79 24 152 UG2/BODY_COLOR_ATTRIBUTE0 1 0 
